<svg xmlns="http://www.w3.org/2000/svg" viewBox="0 0 480 270" width="480" height="270" role="img" aria-label="Miniature of the home page navigation wheel">
  <defs>
    <radialGradient id="bg" cx="50%" cy="0%" r="75%">
      <stop offset="0%" stop-color="#110410"/>
      <stop offset="60%" stop-color="#000000"/>
    </radialGradient>
    <radialGradient id="floor" cx="50%" cy="50%" r="50%">
      <stop offset="0%" stop-color="#FF69B4" stop-opacity="0.45"/>
      <stop offset="100%" stop-color="#FF69B4" stop-opacity="0"/>
    </radialGradient>
  </defs>

  <rect width="480" height="270" fill="url(#bg)"/>

  <!-- floor -->
  <ellipse cx="321.1" cy="170.2" rx="67.5" ry="5.0" fill="url(#floor)" opacity="0.127"/>
  <ellipse cx="158.9" cy="170.2" rx="67.5" ry="5.0" fill="url(#floor)" opacity="0.127"/>
  <ellipse cx="471.2" cy="178.9" rx="77.2" ry="5.7" fill="url(#floor)" opacity="0.314"/>
  <ellipse cx="8.8" cy="178.9" rx="77.2" ry="5.7" fill="url(#floor)" opacity="0.314"/>
  <ellipse cx="518.5" cy="199.5" rx="100.2" ry="7.5" fill="url(#floor)" opacity="0.546"/>
  <ellipse cx="-38.5" cy="199.5" rx="100.2" ry="7.5" fill="url(#floor)" opacity="0.546"/>
  <ellipse cx="240.0" cy="217.2" rx="120.0" ry="8.9" fill="url(#floor)" opacity="0.650"/>

  <!-- wheel -->
  <g opacity="0.430">
    <polygon points="366.8,111.1 278.4,112.8 278.4,162.9 366.8,164.6" fill="#140510" stroke="#FF69B4" stroke-width="0.53"/>
    <polygon points="366.8,159.7 278.4,158.3 278.4,162.9 366.8,164.6" fill="#000000" fill-opacity="0.85"/>
  </g>
  <g opacity="0.430">
    <polygon points="201.6,112.8 113.2,111.1 113.2,164.6 201.6,162.9" fill="#140510" stroke="#FF69B4" stroke-width="0.53"/>
    <polygon points="201.6,158.3 113.2,159.7 113.2,164.6 201.6,162.9" fill="#000000" fill-opacity="0.85"/>
  </g>
  <g opacity="0.633">
    <polygon points="509.8,101.6 439.3,107.8 439.3,167.8 509.8,174.1" fill="#140510" stroke="#FF69B4" stroke-width="0.53"/>
    <polygon points="509.8,167.4 439.3,162.3 439.3,167.8 509.8,174.1" fill="#000000" fill-opacity="0.85"/>
  </g>
  <g opacity="0.633">
    <polygon points="40.7,107.8 -29.8,101.6 -29.8,174.1 40.7,167.8" fill="#140510" stroke="#FF69B4" stroke-width="0.53"/>
    <polygon points="40.7,162.3 -29.8,167.4 -29.8,174.1 40.7,167.8" fill="#000000" fill-opacity="0.85"/>
  </g>
  <g opacity="0.887">
    <polygon points="488.1,72.1 541.9,87.5 541.9,188.2 488.1,203.5" fill="#140510" stroke="#FF69B4" stroke-width="0.62"/>
    <polygon points="488.1,191.4 541.9,178.9 541.9,188.2 488.1,203.5" fill="#000000" fill-opacity="0.85"/>
  </g>
  <g opacity="0.887">
    <polygon points="-61.9,87.5 -8.1,72.1 -8.1,203.5 -61.9,188.2" fill="#140510" stroke="#FF69B4" stroke-width="0.62"/>
    <polygon points="-61.9,178.9 -8.1,191.4 -8.1,203.5 -61.9,188.2" fill="#000000" fill-opacity="0.85"/>
  </g>
  <g opacity="1.000">
    <polygon points="98.8,58.4 381.2,58.4 381.2,217.2 98.8,217.2" fill="#1e0817" stroke="#FF69B4" stroke-width="0.67"/>
    <polygon points="98.8,202.5 381.2,202.5 381.2,217.2 98.8,217.2" fill="#000000" fill-opacity="0.85"/>
  </g>

  <text x="10.7" y="16.0" font-family="'Press Start 2P', monospace" font-size="8.00" fill="#FF69B4" stroke="#000000" stroke-width="0.67" paint-order="stroke" >Sinéad Ahern</text>

  <line x1="0" y1="248.3" x2="480" y2="248.3" stroke="#FF69B4" stroke-opacity="0.3" stroke-width="0.33"/>
  <rect x="8.0" y="256.3" width="4.7" height="3.0" fill="#FF69B4" opacity="0.85"/>
  <rect x="14.3" y="256.3" width="3.3" height="3.0" fill="#FF69B4" opacity="0.85"/>
  <rect x="19.3" y="256.3" width="2.0" height="3.0" fill="#FF69B4" opacity="0.85"/>
  <rect x="23.0" y="256.3" width="7.3" height="3.0" fill="#FF69B4" opacity="0.85"/>
</svg>
